<svg id="Layer_1" data-name="Layer 1" xmlns="http://www.w3.org/2000/svg" viewBox="0 0 613 518.11"><defs><style>.cls-1,.cls-2,.cls-4{fill:none;}.cls-1,.cls-2{stroke:#000;stroke-miterlimit:10;}.cls-1{stroke-width:4px;}.cls-2{stroke-width:2px;}.cls-3{fill:#fff;}.cls-5{font-size:334px;font-family:Algerian;}</style></defs><title>TM-teste</title><path class="cls-1" d="M606.26,270.05c0,13.74-27.14,24.57-29.85,37.66C573.67,321,594.28,341.64,589,354.07S554.46,366,546.9,377.34c-7.44,11.13,4.31,37.87-5.11,47.79-9.2,9.67-36.62-.55-47.49,7.79-10.58,8.12-7.64,37.22-19.61,43.92-11.63,6.5-35-11.15-47.74-6.14-12.41,4.87-17.4,33.71-30.72,37-12.92,3.23-30.94-19.82-44.57-18.17-13.21,1.59-25.16,28.33-38.9,28.33s-25.69-26.74-38.91-28.33c-13.63-1.65-31.65,21.4-44.57,18.17-13.31-3.33-18.31-32.17-30.71-37-12.77-5-36.11,12.64-47.75,6.14-12-6.7-9-35.8-19.61-43.92-10.87-8.34-38.29,1.88-47.49-7.79-9.42-9.92,2.33-36.66-5.11-47.79C71.05,366,41.8,366.44,36.53,354.06S51.84,321,49.1,307.7c-2.7-13.08-29.84-23.91-29.84-37.65S46.4,245.49,49.1,232.4c2.74-13.29-17.87-33.93-12.57-46.36s34.52-12,42.08-23.28c7.44-11.12-4.31-37.87,5.12-47.78,9.19-9.67,36.61.55,47.48-7.8,10.58-8.11,7.64-37.22,19.62-43.91,11.63-6.5,35,11.15,47.74,6.14,12.4-4.87,17.4-33.72,30.71-37,12.92-3.23,30.94,19.82,44.57,18.17,13.22-1.6,25.17-28.33,38.91-28.33s25.69,26.73,38.9,28.33c13.63,1.65,31.65-21.4,44.57-18.17,13.32,3.32,18.31,32.17,30.72,37,12.77,5,36.11-12.64,47.74-6.14,12,6.7,9,35.8,19.61,43.91,10.87,8.35,38.3-1.87,47.49,7.8,9.42,9.91-2.33,36.66,5.11,47.79,7.57,11.32,36.81,10.89,42.09,23.27s-15.32,33.07-12.58,46.36C579.12,245.49,606.26,256.32,606.26,270.05Z" transform="translate(-6.26 -11)"/><path class="cls-2" d="M59.26,257.91" transform="translate(-6.26 -11)"/><path class="cls-1" d="M617.26,270.05c0,14.28-27.2,25.63-30,39.24-2.85,13.81,17.6,34.95,12.1,47.87s-35,12.91-42.85,24.67c-7.72,11.57,3.69,38.73-6.1,49-9.56,10.05-37.37.19-48.67,8.85-11,8.44-8.5,37.83-20.94,44.79-12.09,6.76-35.91-10.67-49.18-5.46-12.89,5.06-18.39,34.07-32.23,37.52-13.42,3.36-32-19.59-46.13-17.88-13.73,1.66-26.21,28.43-40.49,28.43S286,500.34,272.27,498.68c-14.17-1.71-32.71,21.24-46.14,17.88-13.84-3.45-19.34-32.46-32.23-37.52-13.27-5.21-37.09,12.22-49.18,5.46-12.44-7-9.94-36.35-20.94-44.79-11.3-8.67-39.11,1.2-48.67-8.85-9.79-10.31,1.62-37.47-6.1-49C61.14,370.07,31.64,370,26.16,357.16s15-34.06,12.1-47.88c-2.81-13.6-30-24.95-30-39.23s27.19-25.63,30-39.23c2.85-13.82-17.6-35-12.1-47.87S61.15,170,69,158.27c7.73-11.56-3.69-38.72,6.1-49,9.56-10,37.38-.19,48.68-8.86,11-8.43,8.49-37.83,20.93-44.78,12.09-6.76,35.91,10.66,49.18,5.45C206.79,56,212.29,27,226.13,23.54c13.43-3.35,32,19.6,46.14,17.89C286,39.77,298.48,13,312.76,13s26.76,26.77,40.49,28.43c14.16,1.71,32.71-21.24,46.13-17.89C413.22,27,418.72,56,431.61,61.06c13.27,5.21,37.09-12.21,49.18-5.45,12.44,7,9.95,36.35,20.94,44.78,11.3,8.67,39.12-1.19,48.67,8.86,9.79,10.3-1.62,37.46,6.11,49,7.86,11.77,37.36,11.81,42.84,24.68s-15,34.06-12.1,47.87C590.06,244.42,617.26,255.78,617.26,270.05Z" transform="translate(-6.26 -11)"/><path id="BAIXO" class="cls-3" d="M29.16,208.55l9.23-6.05a2,2,0,0,1,2.47.25l2.72,2.92a1.31,1.31,0,0,1-.3,2.06l-9.23,6.05a2,2,0,0,1-2.47-.25l-2.72-2.92A1.31,1.31,0,0,1,29.16,208.55Z" transform="translate(-6.26 -11)"/><polygon class="cls-3" points="236.7 27.39 244.78 18.17 249.69 21.19 241.61 30.41 236.7 27.39"/><polygon id="BAIXO-2" data-name="BAIXO" class="cls-3" points="12.96 281.63 21.86 271.27 27.78 274.84 18.88 285.19 12.96 281.63"/><polygon id="BAIXO-3" data-name="BAIXO" class="cls-3" points="39.87 362.55 44.45 350.38 51.41 352.22 46.82 364.39 39.87 362.55"/><polygon class="cls-3" points="316.72 21.92 329.97 13.89 334.41 18.54 321.16 26.56 316.72 21.92"/><polygon class="cls-3" points="160.34 56.22 165.19 43.47 171 45 166.16 57.75 160.34 56.22"/><polygon id="BAIXO-4" data-name="BAIXO" class="cls-3" points="93.7 427.51 94.08 414.76 101.37 414.91 101 427.66 93.7 427.51"/><polygon id="BAIXO-5" data-name="BAIXO" class="cls-3" points="165.59 474.13 160.9 462 167.84 460.12 172.53 472.25 165.59 474.13"/><path class="cls-3" d="M408.08,45.85l11.28-3.15a1.73,1.73,0,0,1,2.08.86l1,2.49a1.33,1.33,0,0,1-1,1.74l-11.28,3.15a1.72,1.72,0,0,1-2.08-.86l-1-2.49A1.33,1.33,0,0,1,408.08,45.85Z" transform="translate(-6.26 -11)"/><polygon id="BAIXO-6" data-name="BAIXO" class="cls-3" points="246.85 497.43 237.96 487.07 243.89 483.5 252.77 493.86 246.85 497.43"/><polygon id="BAIXO-7" data-name="BAIXO" class="cls-3" points="324.42 490.39 336.69 497.94 332.37 502.87 320.09 495.31 324.42 490.39"/><rect class="cls-3" x="100" y="101" width="9" height="14" transform="translate(202.74 205) rotate(180)"/><polygon class="cls-3" points="562.19 166.92 567.15 154.08 572.97 155.66 568.01 168.5 562.19 166.92"/><polygon id="BAIXO-8" data-name="BAIXO" class="cls-3" points="404.97 474.52 417.81 480.81 414.8 485.54 401.96 479.25 404.97 474.52"/><rect id="BAIXO-9" data-name="BAIXO" class="cls-3" x="481.98" y="454.27" width="15.23" height="6.11" transform="translate(869.72 993.66) rotate(-168.27)"/><polygon id="BAIXO-10" data-name="BAIXO" class="cls-3" points="583.77 243.32 591.97 232.57 598.12 235.85 589.93 246.61 583.77 243.32"/><path class="cls-3" d="M452.29,68l-4.28-11a.75.75,0,0,1,.5-1l2.71-.73a.94.94,0,0,1,1.12.58l4.28,11a.74.74,0,0,1-.5,1l-2.7.73A1,1,0,0,1,452.29,68Z" transform="translate(-6.26 -11)"/><path id="BAIXO-11" data-name="BAIXO" class="cls-3" d="M580.42,332.41l11.76-7.33a1.31,1.31,0,0,1,1.62.2l2.42,2.72a.87.87,0,0,1-.24,1.36l-11.76,7.32a1.31,1.31,0,0,1-1.62-.2l-2.41-2.72A.86.86,0,0,1,580.42,332.41Z" transform="translate(-6.26 -11)"/><rect id="BAIXO-12" data-name="BAIXO" class="cls-3" x="514.09" y="104.84" width="14.28" height="6.05" transform="translate(622.84 -424.37) rotate(90)"/><polygon id="BAIXO-13" data-name="BAIXO" class="cls-3" points="535.29 389.62 550.37 387.96 551.6 393.41 536.52 395.07 535.29 389.62"/><path class="cls-1" d="M602.69,231.52c2.49,13.34-22.2,28.76-22.42,41.83-.22,13.41,23.88,29.66,21,42.55s-31.65,17.56-37,29.77,10.91,36.23,3.39,47.34c-7.36,10.87-35.9,5-45.2,14.71-9,9.47-1.63,37.65-12.33,45.87-10.37,8-35.77-6.35-47.55.27-11.39,6.4-12.24,35.55-24.81,40.53C425.62,499.2,405,478.64,391.84,482c-12.63,3.23-20.79,31.24-34.22,33-13.82,1.8-29.33-23.16-42.91-23.07-13.92.1-29.09,25.24-42.59,23.66-13.82-1.63-22.71-29.64-35.91-32.92-13.5-3.35-34.52,17.17-47.16,12.2-13-5.09-14.29-34.43-26.14-41.08-12.13-6.82-38,7.19-48.7-1.13-11-8.51-3.75-36.93-13-46.87-9.47-10.13-38.39-5-45.83-16.46s9-35.72,3.88-48.47-33.86-18.6-36.4-32.27C20.34,295.24,45,279.82,45.24,266.76c.22-13.41-23.87-29.66-21-42.56s31.65-17.55,37-29.76-10.91-36.23-3.39-47.35c7.36-10.86,35.9-5,45.2-14.7,9-9.47,1.63-37.65,12.33-45.87,10.37-8,35.77,6.35,47.55-.27,11.39-6.4,12.24-35.55,24.82-40.53,12.13-4.82,32.8,15.75,45.91,12.39,12.63-3.23,20.79-31.24,34.22-33,13.82-1.8,29.33,23.16,42.91,23.06,13.92-.1,29.1-25.24,42.59-23.65,13.82,1.63,22.72,29.63,35.91,32.91,13.5,3.36,34.52-17.16,47.17-12.19,12.95,5.09,14.28,34.43,26.13,41.08,12.14,6.82,38-7.19,48.7,1.12,11,8.52,3.75,36.94,13,46.88,9.48,10.13,38.4,5,45.83,16.46s-9,35.72-3.88,48.47S600.15,217.86,602.69,231.52Z" transform="translate(-6.26 -11)"/><path class="cls-1" d="M611.82,229.89c2.56,13.8-22.09,29.68-22.31,43.2-.23,13.88,23.81,30.58,20.84,43.93s-31.89,18.44-37.44,31.08c-5.48,12.48,10.5,37,2.71,48.55-7.61,11.24-36.44,5.7-46.06,15.78-9.35,9.8-2.29,38.28-13.36,46.79-10.73,8.24-36.52-5.81-48.71,1-11.78,6.62-13.05,36-26.06,41.13-12.55,5-33.66-15.44-47.23-12-13.07,3.34-21.68,31.44-35.58,33.25-14.3,1.87-30.29-23.06-44.34-23-14.4.1-30,25.21-44,23.57C256,521.59,246.6,493.5,233,490.1c-14-3.47-35.44,16.91-48.53,11.76C171,496.6,169.25,467.05,157,460.17c-12.56-7.05-38.78,6.69-49.89-1.91-11.38-8.82-4.49-37.56-14.1-47.84-9.8-10.49-39-5.74-46.71-17.59s8.55-36.54,3.21-49.73-34.17-19.5-36.8-33.64c-2.57-13.8,22.08-29.68,22.31-43.2.22-13.88-23.82-30.59-20.85-43.93s31.9-18.44,37.45-31.08-10.5-37.05-2.72-48.55C56.5,131.46,85.34,137,95,126.92c9.35-9.8,2.28-38.29,13.36-46.79,10.73-8.24,36.51,5.81,48.7-1,11.79-6.62,13.06-36,26.06-41.12,12.56-5,33.67,15.44,47.23,12C243.39,46.59,252,18.5,265.9,16.68c14.29-1.86,30.28,23.07,44.33,23,14.4-.1,30.06-25.21,44-23.57,14.3,1.68,23.67,29.77,37.32,33.17,14,3.47,35.44-16.91,48.53-11.76,13.4,5.26,15.17,34.81,27.42,41.69,12.56,7,38.78-6.69,49.9,1.91,11.38,8.81,4.49,37.56,14.1,47.84,9.8,10.48,39,5.74,46.71,17.58s-8.56,36.55-3.22,49.74S609.18,215.75,611.82,229.89Z" transform="translate(-6.26 -11)"/><path id="CIMA" class="cls-3" d="M581.83,216.63l5.32-10.36a1.11,1.11,0,0,1,1.26-.62l3.47,1.18a.79.79,0,0,1,.34,1.17l-5.32,10.36a1.11,1.11,0,0,1-1.26.62l-3.47-1.19A.78.78,0,0,1,581.83,216.63Z" transform="translate(-6.26 -11)"/><path id="BAIXO-14" data-name="BAIXO" class="cls-3" d="M588.23,294.78l9.12-8a1.25,1.25,0,0,1,1.47-.25l2.62,2c.35.27.25.83-.21,1.24l-9.12,8a1.26,1.26,0,0,1-1.48.25L588,296C587.67,295.74,587.76,295.19,588.23,294.78Z" transform="translate(-6.26 -11)"/><polygon class="cls-3" points="55.23 159.28 41.27 163.8 39.74 160.91 53.7 156.39 55.23 159.28"/><polygon class="cls-3" points="72.07 118.92 73.12 131.08 67.7 131.25 66.65 119.09 72.07 118.92"/><path class="cls-3" d="M488.38,88.71l-2.54-9.08a1.18,1.18,0,0,1,.71-1.55l2.19-.48a1.35,1.35,0,0,1,1.44,1.08l2.53,9.08a1.17,1.17,0,0,1-.71,1.55l-2.18.48A1.34,1.34,0,0,1,488.38,88.71Z" transform="translate(-6.26 -11)"/><polygon class="cls-3" points="127 77.12 129.35 65.73 133.76 66.37 131.42 77.76 127 77.12"/><path class="cls-3" d="M206.49,50.71l3.65-6.26A2.42,2.42,0,0,1,213,43.26h0a2.4,2.4,0,0,1,.93,3.5L210.34,53a2.41,2.41,0,0,1-2.88,1.19l0,0A2.38,2.38,0,0,1,206.49,50.71Z" transform="translate(-6.26 -11)"/><polygon class="cls-3" points="278.38 25.95 287.11 17.17 289.92 19.1 281.19 27.88 278.38 25.95"/><path class="cls-3" d="M368.38,38.49l10.08-5.76a1.57,1.57,0,0,1,2,.37h0a1.56,1.56,0,0,1-.43,2.34l-10.09,5.75a1.55,1.55,0,0,1-2-.36h0A1.55,1.55,0,0,1,368.38,38.49Z" transform="translate(-6.26 -11)"/><polygon class="cls-3" points="540.7 133.68 541.16 121.53 545.86 121.47 545.4 133.61 540.7 133.68"/><path id="BAIXO-15" data-name="BAIXO" class="cls-3" d="M563.87,369.4l10.36-3.29c.92-.29,1.86-.14,2.1.34l.67,1.33c.24.47-.31,1.09-1.22,1.38l-10.37,3.29c-.92.29-1.86.14-2.1-.34l-.67-1.33C562.4,370.31,563,369.69,563.87,369.4Z" transform="translate(-6.26 -11)"/><polygon id="BAIXO-16" data-name="BAIXO" class="cls-3" points="505.73 420.4 525.64 420.44 525.8 422.78 505.89 422.74 505.73 420.4"/><path id="BAIXO-17" data-name="BAIXO" class="cls-3" d="M447.72,475.57l10.95,3.1c.75.21,1.27.63,1.16.95l-.4,1.08c-.11.31-.81.39-1.57.17l-10.94-3.1c-.76-.21-1.28-.64-1.16-.95l.39-1.08C446.27,475.43,447,475.35,447.72,475.57Z" transform="translate(-6.26 -11)"/><path id="BAIXO-18" data-name="BAIXO" class="cls-3" d="M372.32,499.88l7.84,5.07c.73.47,1,1.15.72,1.52l-.84.94c-.33.37-1.18.29-1.91-.19l-7.84-5.07c-.73-.47-1.05-1.15-.73-1.51l.85-.95C370.73,499.33,371.59,499.41,372.32,499.88Z" transform="translate(-6.26 -11)"/><path id="BAIXO-19" data-name="BAIXO" class="cls-3" d="M290.38,504.36l6.09,6.4c.59.63.64,1.41.11,1.75l-.78.51a1.75,1.75,0,0,1-2-.51l-6.09-6.4c-.59-.62-.64-1.4-.11-1.74l.78-.51A1.75,1.75,0,0,1,290.38,504.36Z" transform="translate(-6.26 -11)"/><polygon id="BAIXO-20" data-name="BAIXO" class="cls-3" points="279.65 491.64 280.98 490.53 284.5 493.48 283.17 494.59 279.65 491.64"/><path id="BAIXO-21" data-name="BAIXO" class="cls-3" d="M211.09,497.18l-4.48-7.9c-.57-1-.43-2,.33-2.34l1.06-.4a2.25,2.25,0,0,1,2.4,1.31l4.48,7.89c.57,1,.43,2.06-.33,2.34l-1.06.4A2.24,2.24,0,0,1,211.09,497.18Z" transform="translate(-6.26 -11)"/><polygon id="BAIXO-22" data-name="BAIXO" class="cls-3" points="129.56 451.1 126.8 441.33 129.66 440.78 132.43 450.55 129.56 451.1"/><path id="BAIXO-23" data-name="BAIXO" class="cls-3" d="M72.76,404.93l.85-10.17a1,1,0,0,1,1-.87l3.94.14a.82.82,0,0,1,.8.93l-.85,10.16a1,1,0,0,1-1,.87l-3.94-.13A.83.83,0,0,1,72.76,404.93Z" transform="translate(-6.26 -11)"/><polygon id="BAIXO-24" data-name="BAIXO" class="cls-3" points="27.15 322.04 32.69 309.63 37.82 311.11 32.28 323.52 27.15 322.04"/><path id="BAIXO-25" data-name="BAIXO" class="cls-3" d="M25.46,249.68l8.12-7.23c.89-.79,2.11-1,2.73-.58l1.14.87c.62.47.4,1.5-.48,2.28l-8.12,7.24c-.89.79-2.11,1-2.73.57L25,252C24.36,251.49,24.57,250.47,25.46,249.68Z" transform="translate(-6.26 -11)"/><path id="BAIXO-26" data-name="BAIXO" class="cls-4" d="M29.3,246.45l2.31-2.16a1.1,1.1,0,0,1,1.38-.06l.75.56a.73.73,0,0,1,.08,1.16l-2.3,2.16a1.1,1.1,0,0,1-1.38.06l-.76-.56A.74.74,0,0,1,29.3,246.45Z" transform="translate(-6.26 -11)"/><text class="cls-5" transform="translate(89.74 372.64)">TM</text><text x="-6.26" y="-11"/><polygon id="BAIXO-27" data-name="BAIXO" class="cls-3" points="131.12 451.4 128.42 440.79 131.04 440.39 133.74 451 131.12 451.4"/><text x="-6.26" y="-11"/></svg>